<svg width="120" height="120" viewBox="0 0 120 120" fill="none" xmlns="http://www.w3.org/2000/svg">
<path d="M60.5998 63.8999C60.2499 63.8499 59.7999 63.8499 59.3999 63.8999C50.5999 63.5999 43.5999 56.3999 43.5999 47.5499C43.5999 38.4999 50.8999 31.1499 59.9999 31.1499C69.0498 31.1499 76.3998 38.4999 76.3998 47.5499C76.3498 56.3999 69.3998 63.5999 60.5998 63.8999Z" stroke="#292D32" stroke-width="5" stroke-linecap="round" stroke-linejoin="round"/>
<path d="M93.7 96.9C84.8 105.05 73 110 60 110C47 110 35.2 105.05 26.3 96.9C26.8 92.2 29.8 87.6 35.15 84C48.85 74.9 71.25 74.9 84.85 84C90.2 87.6 93.2 92.2 93.7 96.9Z" stroke="#292D32" stroke-width="5" stroke-linecap="round" stroke-linejoin="round"/>
<path d="M60 110C87.6142 110 110 87.6142 110 60C110 32.3858 87.6142 10 60 10C32.3858 10 10 32.3858 10 60C10 87.6142 32.3858 110 60 110Z" stroke="#292D32" stroke-width="5" stroke-linecap="round" stroke-linejoin="round"/>
</svg>
